<svg class="lion-logo" viewBox="0 0 752 917" version="1.1" 
    xmlns="http://www.w3.org/2000/svg" 
    xmlns:xlink="http://www.w3.org/1999/xlink">
    <title>LionL</title>
    <desc>Created with Sketch.</desc>
    <g id="Fixup" stroke="none" stroke-width="1" fill="none" fill-rule="evenodd">
        <g id="Artboard" transform="translate(-1460.000000, -78.000000)" fill="currentColor">
            <g id="LionL" transform="translate(1460.000000, 78.000000)">
                <path d="M132.334275,543.941724 L133.837156,568.482357 L137.333401,586.220782 L141.787611,610.947052 L152.859477,636.942491 L162.76395,655.810115 L163.811597,657.132126 C163.655,658.527163 163.655,658.527163 163.655,659.87 C163.655,667.963656 163.655,667.963656 172.688704,668.314136 L179.432755,676.80735 L191.512861,690.321266 L187.514235,678.030801 L182.094964,667.949826 C185.299133,667.688711 185.299133,667.688711 188.861985,667.248254 L192.970601,676.80735 L206.008988,700.578331 L202.476573,682.990111 L198.985997,665.757326 C200.676601,665.473112 200.676601,665.473112 202.43,665.1575 C203.532522,664.959046 203.532522,664.959046 204.673667,664.759213 L207.271674,676.80735 L214.118545,705.719829 L224.515563,740.050157 L232.847512,762.31656 L243.775759,787.432452 L253.914921,805.568598 L263.255392,823.119971 L263.255392,816.203003 L259.504279,798.656406 L256.622786,769.830584 L253.914921,743.105032 L251.186,725.031 L250.963979,724.520235 L247.361111,715.94863 L238.142106,675.200703 L237.240353,659.816197 C240.387642,659.390878 240.387642,659.390878 243.684371,658.960222 L243.685976,664.125343 L248.820178,695.931537 L258.016732,721.485957 L265.03907,740.047185 L279.901555,769.213217 L296.167745,795.634218 L311.438373,816.079082 L284.156253,771.702862 L269.190679,742.695564 L261.257459,721.485957 L254.585285,702.615728 L250.963979,672.859914 L250.1525,658.130589 C253.970094,657.653473 253.970094,657.653473 258.015846,657.182876 L258.016732,679.289676 L261.257459,700.783592 L266.734196,720.06159 L277.333333,748.365522 L289.63823,771.702862 L302.610292,793.033812 L317.294263,816.079082 L325.603,828.566 L324.515476,826.697545 L321.4262,816.17731 L313.003834,796.250282 C307.397808,786.411869 304.594794,781.492663 304.594794,781.492663 C304.594794,781.492663 299.728752,770.311528 289.996667,747.949258 L277.333333,721.574298 L270.74789,694.743358 L269.675879,676.711617 L271.36432,660.465683 L272.474649,655.597138 C273.885711,655.450938 273.885711,655.450938 275.319871,655.305398 L274.643868,659.035612 L274.643868,684.919416 L280.580147,712.575648 L293.530727,742.346331 L319.364509,783.890333 L325.019815,792.676907 L322.813601,775.618121 L319.364509,745.579652 L322.34914,712.575648 L329.443502,682.749138 L337.763905,655.768018 L339.556189,650.183075 C341.355142,650.092933 341.355142,650.092933 343.181864,650.007891 L343.062595,650.669973 L337.763905,671.3221 L330.316855,696.780512 L326.939354,713.777912 L325.019815,732.756866 L326.1878,767.12654 L329.443502,789.740731 L333.725347,802.85871 L344.912813,820.925989 L355.17517,836.443099 L361.101,848.137 L360.684594,847.286009 L359.07965,840.701569 L352.944627,827.334206 L349.565471,817.635773 C346.902187,804.57764 345.570545,798.048574 345.570545,798.048574 C345.570545,798.048574 345.129703,792.670929 344.248018,781.915641 L343.862044,761.673066 L345.570545,748.662397 L347.173674,733.424433 L351.686257,715.566612 L357.947649,690.223573 L361.945167,675.54486 L366.183758,657.116554 L367.864114,649.124033 C369.378881,649.084615 369.378881,649.084615 370.909489,649.048106 L370.800805,651.64727 L370.405499,658.862864 L368.988877,666.780229 L368.005277,673.949329 L365.868031,683.237613 L363.291682,694.467454 L360.388568,703.619821 L357.947649,713.453692 L356.01,720.803417 L353.559749,732.476607 C351.757585,740.833646 350.856502,745.114243 350.856502,745.318398 C350.856502,745.522554 350.336469,751.883701 349.296403,764.40184 L349.296403,785.057321 L352.154273,802.801965 L356.489163,819.747645 L363.291682,836.931481 L369.344264,852.324659 L373.067739,865.58451 L373.937204,876.070282 L373.067739,879.883097 L373.067739,891.669818 L372.555443,904.766589 L369.284555,914.212646 L367.437746,916.760522 L365.50199,915.032322 L365.50199,906.082657 L364.548368,886.811084 L362.81437,873.317945 L358.154114,860.152963 L348.095684,839.666778 L336.752328,821.965202 L326.939354,807.865903 L320.266792,797.941224 L314.298987,789.150335 L315.86098,794.665096 L322.813601,811.0999 L328.186779,833.003036 L326.676,830.409 L328.917547,834.508385 L331.423618,846.419741 L325.969767,846.419741 L320.79971,833.263915 L317.294263,829.116387 L300.449044,811.379868 L284.269823,790.273261 L275.470731,776.510016 L261.257459,748.365522 L258.588,742.092 L259.504279,747.245524 L263.255392,777.487219 L266.0763,798.656406 L269.619798,817.264055 L274.052864,837.531859 L277.333333,848.883412 L275.229843,850.211945 L271.81786,844.175206 L261.429707,832.236833 L247.874129,811.472961 L236.249151,787.432452 L228.073099,770.949636 L218.230953,748.78968 L208.976188,727.943244 L198.640493,709.358795 L187.514235,695.937678 L176.834239,682.990111 L160.71561,664.453426 L151.658116,649.918034 L144.349467,633.067999 L138.981024,620.275441 L135.169943,606.52394 L133.837156,598.640934 L132.334275,590.21959 L131.528249,581.160379 L130.722222,568.482357 L130.722222,555.239818 L132.334275,543.941724 Z M619.665725,543.47733 L621.277778,554.775425 L621.277778,568.017963 L620.471751,580.695985 L619.665725,589.755196 L618.162844,598.17654 L616.830057,606.059547 L613.018976,619.811048 L607.650533,632.603605 L600.341884,649.45364 L591.28439,663.989033 L575.165761,682.525718 L564.485765,695.473284 L553.359507,708.894401 L543.023812,727.478851 L533.769047,748.325286 L523.926901,770.485243 L515.750849,786.968058 L504.125871,811.008568 L490.570293,831.772439 L480.18214,843.710812 L476.770157,849.747551 L474.666667,848.419018 L477.947136,837.067465 L482.380202,816.799661 L485.9237,798.192012 L488.744608,777.022826 L492.495721,746.781131 L493.412,741.628 L490.742541,747.901129 L476.529269,776.045622 L467.730177,789.808868 L451.550956,810.915474 L434.705737,828.651994 L431.20029,832.799522 L426.030233,845.955348 L420.576382,845.955348 L423.082453,834.043992 L425.32,829.951 L423.813221,832.538643 L429.186399,810.635507 L436.13902,794.200703 L437.701013,788.685941 L431.733208,797.47683 L425.060646,807.40151 L415.247672,821.500808 L403.904316,839.202385 L393.845886,859.68857 L389.18563,872.853551 L387.451632,886.346691 L386.49801,905.618263 L386.49801,914.567929 L384.562254,916.296128 L382.715445,913.748252 L379.444557,904.302195 L378.932261,891.205424 L378.932261,879.418703 L378.062796,875.605888 L378.932261,865.120117 L382.655736,851.860266 L388.708318,836.467087 L395.510837,819.283252 L399.845727,802.337572 L402.703597,784.592928 L402.703597,763.937447 C401.663531,751.419308 401.143498,745.058161 401.143498,744.854005 C401.143498,744.649849 400.242415,740.369252 398.440251,732.012213 L398.440251,732.012213 L395.99,720.339023 L394.052351,712.989299 L391.611432,703.155428 L388.708318,694.003061 L386.131969,682.77322 L383.994723,673.484936 L383.011123,666.315835 L381.594501,658.39847 L381.199195,651.182877 L381.099598,648.840269 C382.622948,648.814292 382.622948,648.814292 384.160978,648.791012 L385.816242,656.65216 L390.054833,675.080466 L394.052351,689.75918 L400.313743,715.102218 L404.826326,732.960039 L406.429455,748.198003 L408.137956,761.208673 L407.751982,781.451247 C406.870297,792.206536 406.429455,797.58418 406.429455,797.58418 C406.429455,797.58418 405.097813,804.113247 402.434529,817.171379 L402.434529,817.171379 L399.055373,826.869813 L392.92035,840.237175 L391.315406,846.821616 L390.901,847.668 L396.82483,835.978706 L407.087187,820.461596 L418.274653,802.394317 L422.556498,789.276338 L425.8122,766.662146 L426.980185,732.292473 L425.060646,713.313519 L421.683145,696.316119 L414.236095,670.857706 L408.937405,650.20558 L408.643708,648.592467 C410.222639,648.59 410.222639,648.59 411.815,648.59 L412.079,648.589 L414.236095,655.303625 L422.556498,682.284744 L429.65086,712.111254 L432.635491,745.115259 L429.186399,775.153728 L426.980185,792.212514 L432.635491,783.42594 L458.469273,741.881937 L471.419853,712.111254 L477.356132,684.455023 L477.356132,658.571219 L475.825187,650.129238 C477.100261,650.193271 477.100261,650.193271 478.355238,650.259131 L478.623065,651.182877 L480.63568,660.001289 L482.324121,676.247224 L481.25211,694.278964 L474.666667,721.109905 L462.003333,747.484865 C452.271248,769.847134 447.405206,781.028269 447.405206,781.028269 C447.405206,781.028269 444.602192,785.947476 438.996166,795.785889 L438.996166,795.785889 L430.5738,815.712916 L427.484524,826.233151 L426.4,828.096 L434.705737,815.614689 L449.389708,792.569418 L462.36177,771.238469 L474.666667,747.901129 L485.265804,719.597196 L490.742541,700.319199 L493.983268,678.825283 L493.984961,651.206683 C497.960852,651.492858 497.960852,651.492858 501.778381,651.846902 L502.085085,653.324935 L501.036021,672.395521 L497.414715,702.151335 L490.742541,721.021564 L482.809321,742.231171 L467.843747,771.238469 L440.561627,815.614689 L455.832255,795.169825 L472.098445,768.748823 L486.96093,739.582792 L493.983268,721.021564 L503.179822,695.467143 L508.314024,663.66095 L508.315676,652.515955 C511.783641,652.90543 511.783641,652.90543 515.110926,653.355198 L513.857894,674.73631 L504.638889,715.484237 L501.036021,724.055841 L500.814,724.566 L498.085079,742.640639 L495.377214,769.366191 L492.495721,798.192012 L488.744608,815.738609 L488.744608,822.655578 L498.085079,805.104205 L508.224241,786.968058 L519.152488,761.852167 L527.484437,739.585764 L537.881455,705.255436 L544.728326,676.342956 L548.495338,658.875088 C551.156313,659.787923 551.156313,659.787923 553.817289,661.315678 L549.523427,682.525718 L545.991012,700.113938 L559.029399,676.342956 L559.271781,675.778354 C559.16,676.601745 559.16,676.601745 559.16,677.495 C559.16,682.9532 559.16,682.9532 562.461412,683.789422 L560.487139,689.856872 L565.427075,684.331415 C566.843915,684.545 566.843915,684.545 567.62,684.545 C573.26,684.545 573.26,684.545 575.0225,679.9625 C576.785,675.38 576.785,675.38 576.785,672.56 C576.785,671.813862 576.785,671.813862 576.74061,671.086415 L589.23605,655.345722 L599.140523,636.478097 L610.212389,610.482659 L614.666599,585.756388 L618.162844,568.017963 L619.665725,543.47733 Z M215.611555,662.950731 L216.584164,669.979903 L214.138889,671.887837 L211.124015,663.668976 C213.30839,663.311974 213.30839,663.311974 215.611555,662.950731 Z M542.877412,657.747073 L537.861111,671.423443 L535.415836,669.515509 L537.17388,656.811003 C540.042908,657.279038 540.042908,657.279038 542.877412,657.747073 Z M564.8,668.33 C562.662522,669.398739 562.662522,669.398739 561.335117,670.973774 L562.918965,667.294428 C563.954537,667.907268 563.954537,667.907268 564.8,668.33 Z M192.339347,666.787705 L192.438178,667.212673 L189.978442,667.212673 L189.935205,667.112561 C191.118089,666.959726 191.118089,666.959726 192.339347,666.787705 Z M562.019744,666.748712 L559.561822,666.74828 L559.881298,665.363734 C561.026015,666.131717 561.026015,666.131717 562.019744,666.748712 Z M589.236629,578.699219 L589.23605,598.17654 L588.056379,616.10453 L583.067702,637.543244 L576.975191,651.1561 L573.064072,660.464158 C571.792915,658.665656 571.792915,658.665656 570.0875,657.05 C569.085971,656.101183 569.085971,656.101183 568.10809,655.215426 L569.189248,652.699573 L579.480612,625.157867 L583.067702,596.955362 L583.067812,586.679582 C586.107612,582.064887 586.107612,582.064887 589.236629,578.699219 Z M569.780996,612.036138 L569.781891,636.413784 L567.747549,648.098284 L566.415891,653.714489 C564.168847,651.764615 564.168847,651.764615 562.052119,650.162251 L562.397475,646.624572 L562.822928,635.462764 L562.648724,630.109488 C565.718049,621.445421 565.718049,621.445421 569.780996,612.036138 Z M362.511852,649.273879 L361.71031,651.64727 L358.498978,651.64727 L358.498205,649.40058 C360.490381,649.334539 360.490381,649.334539 362.511852,649.273879 Z M393.501613,648.675784 L393.501022,651.182877 L390.28969,651.182877 L389.456299,648.719368 C391.466813,648.695345 391.466813,648.695345 393.501613,648.675784 Z M373.874184,648.980443 L373.707735,650.29835 L373.31779,648.99268 C373.59573,648.986514 373.59573,648.986514 373.874184,648.980443 Z M378.573666,648.885384 L378.292265,649.833956 L378.171848,648.892941 C378.372627,648.889139 378.372627,648.889139 378.573666,648.885384 Z M223.568089,464.844865 L226.770237,468.214522 L221.345461,475.6981 L214.475993,485.952423 L204.543044,503.967202 L200.128942,514.024239 L194.237467,534.965558 L190.927502,554.572449 L189.177072,570.221497 L194.237467,558.854586 L198.418524,549.239817 L205.235152,539.820076 L212.030095,531.896487 L220.226664,522.191119 L227.945233,514.477233 L236.888889,505.292598 L224.401918,522.598109 L213.03298,538.147526 L204.543044,552.092411 L198.418524,567.020337 L193.986673,583.274372 L192.438178,593.360375 L190.927502,604.361307 L189.978442,615.38595 L189.602525,622.69813 L189.177072,635.927157 L189.497712,644.346443 C186.346903,644.536262 186.346903,644.536262 183.558498,644.581119 L182.218109,636.878177 L182.218109,610.673476 L179.833333,603.42008 L179.833333,587.115922 L180.638149,575.10966 L182.218109,563.2672 L184.252451,547.360089 L186.610255,534.090326 L192.190419,516.479353 L199.860167,498.023412 L209.109845,481.837337 L217.302827,470.997634 L223.568089,464.844865 Z M167.086665,541.651129 L168.932298,570.011588 L168.932298,597.419755 L172.519388,625.62226 L179.597285,644.567307 C177.491953,644.514329 177.491953,644.514329 175.64,644.36 C173.516187,644.166926 173.516187,644.166926 171.815382,644.449735 L168.932298,638.007637 L163.943621,616.568923 L162.76395,598.640934 L162.76395,574.443443 L163.943621,551.321375 L167.086665,541.651129 Z M192.970601,597.419755 L194.683981,606.52394 L197.374853,626.93184 L200.410407,643.379887 C199.128953,643.523569 199.128953,643.523569 197.8475,643.655 C196.733158,643.769291 196.733158,643.769291 195.653557,643.869687 L194.683981,636.002214 L192.970601,616.568923 L192.970601,597.419755 Z M226.055556,541.651129 L220.053946,554.950758 L216.584164,562.549926 L211.90146,576.481371 L208.904768,594.794823 L207.734542,614.422388 L210.44798,631.55641 L212.316341,641.780554 C209.036777,642.293927 209.036777,642.293927 205.757212,642.727058 L204.143013,635.092124 L202.222222,620.432786 L204.143013,591.502212 L207.734542,575.59064 L213.833892,560.612138 L226.055556,541.651129 Z M265.03907,584.713483 L254.585285,606.769483 L245.00497,634.709392 C242.939966,635.294681 242.939966,635.294681 240.749369,635.86741 L242.666667,626.962675 L254.585285,600.739209 L265.03907,584.713483 Z M41.9985711,358.651857 L38.3796938,370.596133 L36.1451209,382.365215 L34.2941931,396.809765 L34.2941931,417.881739 L38.3796938,436.833072 L47.1645901,460.619962 L54.2051983,475.325877 L58.7953293,485.539609 L58.7953293,451.565184 L62.4817129,426.451858 L67.1666667,405.384021 L71.0260686,395.618456 L76.1932641,382.365215 L80.6816334,377.120911 L77.2712696,383.750174 L73.5008328,395.618456 L69.4485356,412.890373 L67.1666667,425.4722 L67.1666667,446.664132 L65.7954177,465.204573 L65.7954177,487.547828 L67.1666667,510.255095 L72.2770968,525.621469 L80.6816334,545.074007 L90.6766112,565.506203 L96.4488474,574.961532 L104.140243,595.244125 L107.611111,603.847173 L107.611111,627.307445 L104.140243,632.482884 L102.007106,610.467101 L97.490698,594.178289 L89.0319334,574.961532 L80.6816334,558.686509 L69.4485356,535.613852 L63.8821608,518.038592 L58.0961562,505.576435 L48.3960276,485.539609 L36.5873716,458.226165 L31.1578007,443.94667 L28.4310899,432.730143 L26.7222222,422.962435 L26.7222222,411.349598 L27.9157222,393.369834 L32.6455663,377.120911 L41.9985711,358.651857 Z M710.001429,358.187464 L719.354434,376.656518 L724.084278,392.905441 L725.277778,410.885205 L725.277778,422.498041 L723.56891,432.265749 L720.842199,443.482276 L715.412628,457.761771 L703.603972,485.075216 L693.903844,505.112042 L688.117839,517.574198 L682.551464,535.149459 L671.318367,558.222115 L662.968067,574.497138 L654.509302,593.713896 L649.992894,610.002708 L647.859757,632.018491 L644.388889,626.843051 L644.388889,603.382779 L647.859757,594.779732 L655.551153,574.497138 L661.323389,565.04181 L671.318367,544.609613 L679.722903,525.157075 L684.833333,509.790701 L686.204582,487.083435 L686.204582,464.74018 L684.833333,446.199738 L684.833333,425.007806 L682.551464,412.42598 L678.499167,395.154062 L674.72873,383.285781 L671.318367,376.656518 L675.806736,381.900822 L680.973931,395.154062 L684.833333,404.919628 L689.518287,425.987465 L693.204671,451.10079 L693.204671,485.075216 L697.794802,474.861483 L704.83541,460.155569 L713.620306,436.368678 L717.705807,417.417345 L717.705807,396.345372 L715.854879,381.900822 L713.620306,370.13174 L710.001429,358.187464 Z M259.864435,618.450331 L259.255614,629.409773 C257.448727,630.49692 257.448727,630.49692 254.533659,631.632249 L254.585285,631.378992 L259.864435,618.450331 Z M161.777778,411.414421 L156.884781,417.746021 L149.471006,425.101954 L143.631835,431.713558 L137.878878,439.45891 L131.609653,449.022897 L126.710017,457.035798 L121.988241,467.40713 L119.520943,477.619419 L116.275337,489.336047 L115.254679,504.443758 L115.744473,516.795275 L116.275337,532.477713 L117.077065,539.750445 L119.520943,554.157028 L121.988241,567.502477 L125.440219,581.094649 L125.440219,586.73888 L123.083913,586.73888 L121.13526,581.094649 L118.421198,569.770665 L116.275337,562.474893 L114.48893,550.812025 L113.371535,543.009047 L111.64351,535.174387 L110.919439,541.981194 L112.211949,550.812025 L113.957047,564.045793 L115.744473,578.095891 L117.576023,597.734859 L118.421198,606.539771 L117.077065,613.981145 L116.275337,620.362346 L113.371535,624.468318 L112.211949,620.362346 L112.211949,596.685246 L110.919439,583.173395 L109.151772,565.37541 L108.337486,555.499125 L107.611111,540.867259 L107.611111,529.541996 L109.151772,519.416748 L109.966398,507.545238 L110.919439,490.3111 L113.371535,478.995756 L118.421198,463.622442 L125.440219,450.162431 L138.604914,433.217897 L153.469122,418.885236 L161.777778,411.414421 Z M590.222222,410.950027 L598.530878,418.420842 L613.395086,432.753503 L626.559781,449.698038 L633.578802,463.158048 L638.628465,478.531363 L641.080561,489.846706 L642.033602,507.080844 L642.848228,518.952354 L644.388889,529.077603 L644.388889,540.402866 L643.662514,555.034731 L642.848228,564.911016 L641.080561,582.709001 L639.788051,596.220852 L639.788051,619.897952 L638.628465,624.003924 L635.724663,619.897952 L634.922935,613.516751 L633.578802,606.075377 L634.423977,597.270466 L636.255527,577.631497 L638.042953,563.581399 L639.788051,550.347632 L641.080561,541.5168 L640.35649,534.709994 L638.628465,542.544653 L637.51107,550.347632 L635.724663,562.010499 L633.578802,569.306272 L630.86474,580.630255 L628.916087,586.274487 L626.559781,586.274487 L626.559781,580.630255 L630.011759,567.038083 L632.479057,553.692634 L634.922935,539.286052 L635.724663,532.01332 L636.255527,516.330881 L636.745321,503.979365 L635.724663,488.871654 L632.479057,477.155025 L630.011759,466.942736 L625.289983,456.571405 L620.390347,448.558504 L614.121122,438.994517 L608.368165,431.249164 L602.528994,424.637561 L595.115219,417.281628 L590.222222,410.950027 Z M389.395348,522.97195 L391.892695,529.355732 L394.577715,539.402701 L396.613311,552.051887 L398.074459,562.897912 L398.074459,575.913649 L399.311361,583.155255 L398.975562,596.969625 L398.074459,605.6675 L396.680816,609.827396 C395.2546,609.997448 395.2546,609.997448 393.8375,610.1675 C390.907113,610.519146 390.907113,610.519146 388.249566,610.753861 L390.867925,601.511985 L392.994957,592.716025 L393.899717,585.123512 L394.577715,573.310375 L394.577715,560.109671 L393.899717,548.239459 L391.892695,539.402701 L390.867925,531.343437 L389.395348,522.97195 Z M407.377975,508.454386 L410.772,511.799991 L417.274997,520.287154 L422.241579,530.438439 L427.763527,542.309827 L430.968434,555.980417 L430.968434,569.036419 L428.638944,583.604567 L424.188777,594.695373 L417.274997,605.729734 L425.039296,598.177543 L433.501921,585.60987 L437.762548,573.142832 L439.374254,558.718376 L442.158933,564.691774 L443.490382,576.182165 L439.924605,588.955823 L430.094611,601.731366 L425.844291,606.196376 C418.936048,607.230841 418.936048,607.230841 411.815,608.0525 C406.961622,608.612505 406.961622,608.612505 402.207095,609.17251 L405.842382,604.088357 L412.055027,594.034366 L414.44917,581.60892 L415.199698,572.248987 L414.44917,558.122748 L417.828356,562.278922 L420.170221,569.986338 L420.170221,586.160956 L417.274997,595.701367 L420.170221,589.92164 L424.188777,578.009032 L425.748464,566.447351 L425.039296,553.718139 L422.241579,542.309827 L416.702362,527.654782 L413.314341,520.287154 L407.377975,508.454386 Z M570.5724,360.858986 L572.166667,369.974137 L572.166667,382.632573 L570.5724,396.073707 L563.357413,415.065132 L557.317273,427.485408 L545.549066,444.977059 L534.970744,457.641438 L522.729362,470.226115 L516.238613,476.176569 L511.823615,479.901633 L509.129037,479.449983 L504.740951,489.536951 L499.12023,498.565057 L491.426324,507.601205 L485.92101,512.441411 L478.951497,516.943928 L472.304521,517.436828 L476.364055,522.633251 L479.710098,529.727862 L480.59764,537.131497 L480.59764,547.843853 L478.388748,559.272836 L473.406335,569.778944 L467.51721,577.586686 L459.543245,583.913982 L451.660628,589.373634 L449.312646,591.944753 L447.106009,595.475804 L442.288249,601.36753 L438.868526,603.299627 L437.111111,601.36753 L438.868526,599.422148 L441.475891,594.707439 L444.801258,588.507039 L447.932652,583.913982 L449.312646,578.435103 L450.367847,570.352595 L451.660628,565.110029 L450.367847,558.425818 L447.932652,552.899397 L450.367847,554.450109 L452.863188,558.425818 L455.195005,564.355298 L456.162241,570.352595 L455.195005,576.484129 L453.622542,582.745355 L456.162241,581.301962 L464.81549,571.910997 L471.344427,561.525144 L474.728438,553.894635 L475.717101,543.190319 L474.728438,538.02431 L473.406335,529.727862 L469.832862,522.174609 L464.81549,514.706303 L461.587,509.195 L461.136268,509.167794 L458.220004,507.983945 L451.890258,505.764878 L445.512485,502.862058 L437.24935,498.070096 L430.013263,493.943665 L422.577109,489.005911 L413.09302,482.677218 L404.224288,477.792006 L396.84,476.458 L390.721468,476.145657 L388.07,475.965 L384.081153,475.813401 L373.024491,475.813401 L362.493782,476.528996 C362.470119,470.0459 362.470119,470.0459 362.46591,463.290436 L362.465,460.764 L365.666926,458.272933 L367.699708,454.992852 L369.747385,450.641579 L370.742331,446.724605 L370.742331,436.270901 L366.192393,434.792864 L362.590265,431.775395 C362.767186,410.943964 362.767186,410.943964 363.19399,388.280065 L366.441348,389.004943 L373.788898,391.269687 L376.614,392.338 L378.211102,391.734081 L385.558652,389.469336 L392.621894,387.89095 L398.854559,386.70284 L401.453,386.702 L404.615268,386.238447 L412.716603,386.238447 L416.091817,386.620914 L419.379967,389.004943 L420.934794,392.395314 L423.124,392.623 L425.183384,391.734081 L428.245,391.398 L429.586252,390.740245 L433.050584,391.269687 L437.14183,392.848784 L438.317543,395.552561 L437.14183,396.266373 L431.527603,399.033106 L425.991451,402.643585 L423.480715,405.852427 L420.934794,408.484018 L418.956203,410.498833 L415.386571,411.552984 L411.66233,412.45661 L407.369219,413.85536 L404.615268,415.648885 L399.361882,420.742844 L393.784895,426.987044 L390.005693,430.811478 L385.807607,434.328471 L381.257669,435.806507 L381.257669,446.260212 L382.252615,450.177186 L384.300292,454.528458 L386.333074,457.808539 L391.631662,461.93213 L399.741985,465.936674 L410.283429,470.585211 L418.956203,475.349008 L427.917371,480.894747 L437.14183,486.970866 L444.67018,492.49612 L453.751313,498.430279 L462.19808,501.688822 L464.528523,502.735873 L472.657339,502.397664 L474.077,502.397 L476.786505,501.363667 L481,500.250347 L480.853,500.587 L483.293295,499.785954 L484.055556,501.231802 L481.565623,503.84872 L478.040165,506.869405 L473.513855,508.7034 L473.146,508.734 L473.068171,508.785327 L468.073923,509.592862 L462.69,509.262 L465.484623,511.541257 L474.728438,511.541257 L483.197486,507.601205 L489.28021,502.350948 L493.842346,496.874516 L498.285693,490.287487 L503.513204,479.901633 L512.916275,453.182618 L517.896564,443.392089 L516.238613,458.51922 L523.379699,452.117814 L527.125342,447.704973 L538.443471,430.67807 L555.824775,403.966396 L561.20566,389.240227 L563.357413,378.653631 L565.616678,366.550742 L566.797435,360.858986 L570.5724,360.858986 Z M101.664868,408.742899 L94.789373,421.487607 L91.332345,429.641811 L87.7785404,443.130558 L86.2995417,454.16101 L86.2995417,483.729719 L87.7785404,505.077154 L89.6879845,530.209136 L94.789373,551.62216 L103.175275,571.392738 L107.472155,582.520247 L109.885679,589.226121 L110.5,596.218866 L107.472155,597.085215 L99.4607368,578.795916 L94.0723847,566.382315 L89.6879845,554.662437 L85.6957399,539.677726 L83.128215,524.173349 L80.8888889,505.613652 L80.8888889,479.475646 L81.578948,457.729907 L83.7366452,444.192453 L89.6879845,427.095055 L94.789373,417.186508 L98.4828725,412.084199 L101.664868,408.742899 Z M650.335132,408.278505 L653.517128,411.619806 L657.210627,416.722115 L662.312015,426.630661 L668.263355,443.728059 L670.421052,457.265514 L671.111111,479.011252 L671.111111,505.149259 L668.871785,523.708956 L666.30426,539.213333 L662.312015,554.198044 L657.927615,565.917922 L652.539263,578.331523 L644.527845,596.620821 L641.5,595.754473 L642.114321,588.761727 L644.527845,582.055854 L648.824725,570.928345 L657.210627,551.157766 L662.312015,529.744743 L664.22146,504.61276 L665.700458,483.265326 L665.700458,453.696617 L664.22146,442.666165 L660.667655,429.177418 L657.210627,421.023213 L650.335132,408.278505 Z M486.96093,584.249089 L494.303368,595.506104 C493.386331,595.690049 493.386331,595.690049 492.468433,595.870547 L486.96093,584.249089 Z M525.944444,541.186735 L538.166108,560.147745 L544.265458,575.126247 L545.616135,581.109205 C543.437885,581.996658 543.437885,581.996658 541.215461,582.839936 L540.09854,576.016978 L535.415836,562.085532 L531.946054,554.486365 L525.944444,541.186735 Z M528.431911,464.380472 L534.697173,470.53324 L542.890155,481.372943 L552.139833,497.559018 L559.809581,516.01496 L565.389745,533.625932 L567.747549,546.895695 L569.781891,562.802807 L570.427776,567.635359 C563.931349,572.439306 563.931349,572.439306 556.247205,576.329626 L553.581476,566.555943 L547.456956,551.628018 L538.96702,537.683132 L527.598082,522.133715 L515.111111,504.828204 L524.054767,514.01284 L531.773336,521.726726 L539.969905,531.432093 L546.764848,539.355683 L553.581476,548.775424 L557.762533,558.390192 L562.822928,569.757103 L561.072498,554.108056 L557.762533,534.501165 L551.871058,513.559846 L547.456956,503.502808 L537.524007,485.48803 L530.654539,475.233707 L525.229763,467.750128 L528.431911,464.380472 Z M584.913335,541.186735 L588.056379,550.856981 L588.431393,558.184583 C587.579572,557.829914 587.579572,557.829914 586.655,557.645 C585.186523,557.351305 585.186523,557.351305 583.840397,557.669361 L584.913335,541.186735 Z M272.93,547.4225 C272.712541,550.720628 272.712541,550.720628 272.483903,553.903237 L271.40236,548.308246 L271.40236,537.59589 L272.289902,530.192255 L274.20357,526.135169 C273.602415,537.224207 273.602415,537.224207 272.93,547.4225 Z M156,451.487254 L153.359768,454.642941 L148.489499,460.291047 L143.964028,465.697656 L138.85095,473.887903 L134.400584,483.837482 L131.955848,492.401349 L130.682073,502.434124 L129.394616,526.63239 L128.613205,532.904163 L127.704338,540.584928 L124.222222,544.322651 L124.222222,541.387504 L125.217783,529.676302 L125.217783,516.993079 L126.360993,501.878556 L127.143615,495.80705 L128.613205,486.678963 L130.682073,482.375774 L132.60802,477.237156 L136.020171,470.173843 L142.396189,461.505643 L150.370482,454.642941 L154.243989,451.487254 L156,451.487254 Z M597.756011,451.022861 L601.629518,454.178547 L609.603811,461.041249 L615.979829,469.709449 L619.39198,476.772762 L621.317927,481.91138 L623.386795,486.21457 L624.856385,495.342657 L625.639007,501.414162 L626.782217,516.528685 L626.782217,529.211909 L627.777778,540.923111 L627.777778,543.858258 L624.295662,540.120534 L623.386795,532.439769 L622.605384,526.167996 L621.317927,501.969731 L620.044152,491.936955 L617.599416,483.373089 L613.14905,473.423509 L608.035972,465.233262 L603.510501,459.826654 L598.640232,454.178547 L596,451.022861 L597.756011,451.022861 Z M185.202565,361.323379 L186.383322,367.015135 L188.642587,379.118024 L190.79434,389.704621 L196.175225,404.43079 L213.556529,431.142464 L224.874658,448.169367 L228.620301,452.582208 L235.761387,458.983613 L234.103436,443.856483 L239.083725,453.647011 L248.486796,480.366027 L253.714307,490.75188 L258.157654,497.338909 L262.71979,502.815341 L268.802514,508.065598 L274.974228,510.937258 C274.816362,514.268983 274.816362,514.268983 274.6527,517.528272 L273.048503,517.408322 L266.07899,512.905804 L260.573676,508.065598 L252.87977,499.029451 L247.259049,490.001344 L242.870963,479.914377 L240.176385,480.366027 L235.761387,476.640962 L229.270638,470.690508 L217.029256,458.105832 L206.450934,445.441453 L194.682727,427.949801 L188.642587,415.529525 L181.4276,396.5381 L179.833333,383.096967 L179.833333,370.43853 L181.4276,361.323379 L185.202565,361.323379 Z M271,499.785954 L275.213495,500.899274 L275.426016,500.981291 C275.276252,504.429189 275.276252,504.429189 275.120661,507.804246 L273.959835,507.333798 L270.434377,504.313113 L267.944444,501.696196 L268.706705,500.250347 L271.62,501.207 L271,499.785954 Z M362.527786,483.959475 L371.167097,484.17278 L383.497,484.571 L397.775831,484.216818 L403.704791,484.637174 L410.981531,486.848304 L412.969,487.799 L419.643943,488.354292 L420.311158,489.705604 L415.409,489.806 L415.908239,491.402845 L412.975864,492.960514 L404.233414,491.402845 L392.439068,490.607991 L371.991276,490.388994 L362.569647,490.498555 C362.546058,487.266237 362.546058,487.266237 362.527786,483.959475 Z M72.2222222,323.922068 L72.2222222,324.95394 L67.5827651,327.992128 L61.90554,332.931675 L52.0150333,340.721919 L41.3380206,350.320352 L31.4927573,364.150164 L20.6489099,381.809533 L12.3948369,402.926547 L9.6337843,418.339866 L7.45806675,434.043047 L5.84667846,440.51204 L3.01654901,441.469046 L0,434.043047 L0,418.339866 L2.2999276,409.465705 L5.26982649,398.651076 L9.6337843,388.864385 L13.7274942,379.730269 L25.0956791,362.365746 L37.4107413,348.097691 L50.606028,337.053396 L61.90554,329.076695 L72.2222222,323.922068 Z M679.777778,323.457675 L690.09446,328.612302 L701.393972,336.589002 L714.589259,347.633297 L726.904321,361.901353 L738.272506,379.265875 L742.366216,388.399992 L746.730174,398.186683 L749.700072,409.001311 L752,417.875472 L752,433.578653 L748.983451,441.004652 L746.153322,440.047646 L744.541933,433.578653 L742.366216,417.875472 L739.605163,402.462153 L731.35109,381.345139 L720.507243,363.68577 L710.661979,349.855959 L699.984967,340.257526 L690.09446,332.467281 L684.417235,327.527734 L679.777778,324.489547 L679.777778,323.457675 Z M243.414429,404.067735 L244.987541,414.263901 L245.555556,419.015477 L245.555556,425.964149 L244.987541,428.779315 L243.414429,424.983856 L242.666667,416.8623 L243.414429,404.067735 Z M508.585571,403.603341 L509.333333,416.397906 L508.585571,424.519463 L507.012459,428.314922 L506.444444,425.499755 L506.444444,418.551084 L507.012459,413.799507 L508.585571,403.603341 Z M234.836613,386.70284 L236.966689,391.495203 L237.630295,398.503479 L239.777778,406.633686 L239.777778,412.557162 L239.022162,414.085943 L236.966689,412.557162 L235.409275,406.633686 L234.836613,400.394392 L234,395.223927 L234,389.928891 L234.836613,386.70284 Z M517.163387,386.238447 L518,389.464498 L518,394.759533 L517.163387,399.929998 L516.590725,406.169292 L515.033311,412.092769 L512.977838,413.62155 L512.222222,412.092769 L512.222222,406.169292 L514.369705,398.039085 L515.033311,391.030809 L517.163387,386.238447 Z M188.617048,329.265113 L189.730174,332.891192 C190.354502,335.081065 190.666667,336.706406 190.666667,337.767215 C190.666667,338.828024 189.98346,341.91652 188.617048,347.032702 L185.887323,352.708888 L177.21368,363.425602 L168.460126,370.706586 L160.240224,379.218203 L153.56217,388.595442 L146.84635,400.155558 L142.889654,406.739257 L139.388889,406.739257 L139.388889,400.944787 L141.015573,392.548544 L142.889654,387.522926 L147.86166,379.218203 C149.217419,377.384434 150.582112,375.68336 151.955737,374.114981 C153.329363,372.546602 155.490613,370.221823 158.439487,367.140643 L177.21368,349.940623 C181.663527,343.284859 183.88845,339.956977 183.88845,339.956977 C183.88845,339.956977 184.925106,336.393022 186.998417,329.265113 L188.617048,329.265113 Z M565.001583,328.800719 C567.074894,335.928629 568.11155,339.492584 568.11155,339.492584 C568.11155,339.492584 570.336473,342.820466 574.78632,349.476229 L574.78632,349.476229 L593.560513,366.67625 C596.509387,369.757429 598.670637,372.082209 600.044263,373.650588 C601.417888,375.218967 602.782581,376.920041 604.13834,378.75381 L604.13834,378.75381 L609.110346,387.058532 L610.984427,392.084151 L612.611111,400.480393 L612.611111,406.274864 L609.110346,406.274864 L605.15365,399.691164 L598.43783,388.131049 L591.759776,378.75381 L583.539874,370.242193 L574.78632,362.961208 L566.112677,352.244494 L563.382952,346.568309 C562.01654,341.452127 561.333333,338.363631 561.333333,337.302822 C561.333333,336.242012 561.645498,334.616671 562.269826,332.426799 L562.269826,332.426799 L563.382952,328.800719 Z M227.869292,366.666424 L228.803272,384.012568 L229.842898,394.174099 L231.833333,400.062021 L231.833333,404.067735 L229.842898,402.789931 L225.230025,396.241714 L223.768285,388.38794 L223.166667,378.945807 L225.230025,372.344654 L227.869292,366.666424 Z M524.130708,366.20203 L526.769975,371.880261 L528.833333,378.481414 L528.231715,387.923546 L526.769975,395.77732 L522.157102,402.325537 L520.166667,403.603341 L520.166667,399.597627 L522.157102,393.709706 L523.196728,383.548175 L524.130708,366.20203 Z M437.30457,378.891761 L439.424653,380.002514 L443.092197,382.783947 L445.835645,385.742298 L448.149946,388.730525 L449.388889,391.5402 L449.388889,394.253014 L447.071442,394.253014 L444.733023,391.130349 L441.591099,386.675182 L438.062498,382.783947 L435.666667,380.520663 L437.30457,378.891761 Z M112.463711,253.79461 L115.555556,256.542856 L112.463711,261.252831 L107.807376,264.633919 L98.9209456,269.848843 L83.685335,275.172416 L74.5268545,279.158467 L55.9572179,289.837603 L42.9359494,300.88825 L33.2551651,311.632808 L20.9895015,330.142683 L14.5474852,347.760551 L10.4522035,363.723937 L8.40173714,386.303776 L8.40173714,388.462322 L6.64269536,392.045885 L3.98274002,390.982395 L2.88888889,378.653702 L2.88888889,365.828837 L6.64269536,347.760551 L10.4522035,334.975858 L16.5438645,320.798692 L23.9860885,308.403332 L38.4216944,292.9095 L51.6132969,283.701666 L69.8212764,273.074863 L86.7820235,267.697064 L102.453789,262.391391 C105.203199,259.86502 106.987728,258.601834 107.807376,258.601834 C108.627024,258.601834 110.179136,256.999426 112.463711,253.79461 Z M639.536289,253.330217 C641.820864,256.535033 643.372976,258.137441 644.192624,258.137441 C645.012272,258.137441 646.796801,259.400626 649.546211,261.926997 L649.546211,261.926997 L665.217976,267.232671 L682.178724,272.61047 L700.386703,283.237272 L713.578306,292.445107 L728.013911,307.938939 L735.456136,320.334299 L741.547797,334.511464 L745.357305,347.296157 L749.111111,365.364444 L749.111111,378.189308 L748.01726,390.518002 L745.357305,391.581491 L743.598263,387.997929 L743.598263,385.839383 L741.547797,363.259544 L737.452515,347.296157 L731.010498,329.678289 L718.744835,311.168415 L709.064051,300.423856 L696.042782,289.37321 L677.473146,278.694073 L668.314665,274.708022 L653.079054,269.384449 L644.192624,264.169526 L639.536289,260.788438 L636.444444,256.078462 Z M204.192952,294.535324 L201.941124,311.625804 L201.034975,320.396025 L201.034975,333.216442 L204.946461,347.089299 L210.978584,361.103034 L215.762011,370.803332 L216.77445,363.971548 L219.684632,358.333435 L219.684632,367.41327 L219.997413,379.510608 L220.277778,390.042243 L217.816245,387.326774 L216.77445,383.768858 L214.155388,377.402024 L210.288441,369.794265 L207.1914,362.205549 L203.116539,352.945693 L199.069413,345.419923 L195.381429,335.178329 L193.555556,326.287154 L194.235576,316.496053 L195.381429,308.208942 L197.786099,302.898251 L200.538169,297.813071 L204.192952,294.535324 Z M547.807048,294.070931 L551.461831,297.348678 L554.213901,302.433858 L556.618571,307.744549 L557.764424,316.031659 L558.444444,325.822761 L556.618571,334.713936 L552.930587,344.955529 L548.883461,352.4813 L544.8086,361.741155 L541.711559,369.329872 L537.844612,376.93763 L535.22555,383.304464 L534.183755,386.86238 L531.722222,389.57785 L532.002587,379.046214 L532.315368,366.948877 L532.315368,357.869041 L535.22555,363.507154 L536.237989,370.338938 L541.021416,360.638641 L547.053539,346.624906 L550.965025,332.752048 L550.965025,319.931632 L550.058876,311.16141 L547.807048,294.070931 Z M185.611111,296.538966 L185.611111,298.378981 C180.255553,304.581577 176.047514,309.614719 172.986996,313.478406 C169.926477,317.342094 165.73289,321.461957 160.406235,325.837997 L145.142237,339.590537 L134.273745,347.972145 L125.640834,356.306239 L117.069527,364.527695 L111.629985,370.934614 L107.226002,376.129477 L105.288684,378.847325 L104.814251,379.356154 L102.453238,379.356154 L101.833333,377.989233 L101.833333,374.046812 C106.301992,366.330276 110.628962,360.416752 114.814243,356.306239 C118.999523,352.195727 126.366891,346.623826 136.916347,339.590537 L160.406235,320.572194 L185.611111,296.538966 Z M566.388889,296.074572 L591.593765,320.107801 L615.083653,339.126144 C625.633109,346.159432 633.000477,351.731333 637.185757,355.841846 C641.371038,359.952359 645.698008,365.865883 650.166667,373.582418 L650.166667,373.582418 L650.166667,377.52484 L649.546762,378.891761 L647.185749,378.891761 L646.711316,378.382931 L644.773998,375.665084 L640.370015,370.470221 L634.930473,364.063302 L626.359166,355.841846 L617.726255,347.507751 L606.857763,339.126144 L591.593765,325.373604 C586.26711,320.997564 582.073523,316.8777 579.013004,313.014013 C575.952486,309.150326 571.744447,304.117184 566.388889,297.914587 L566.388889,297.914587 L566.388889,296.074572 Z M460.913504,273.53541 L463.624831,273.89059 L464.545083,274.321343 L476.556698,274.321343 L481.243205,276.606707 L487.471356,281.806721 L492.373981,284.948074 L497.33702,287.219719 L503.555556,290.931519 L503.555556,293.638494 L497.33702,293.638494 L492.373981,298.814951 L488.563865,301.23076 L483.200323,301.23076 L483.200323,300.066669 L485.416341,298.53522 L487.471356,296.869391 L490.742084,295.66026 L492.678443,293.87021 L493.825663,292.456886 L492.225972,291.611273 L488.047578,289.065404 L483.200323,294.060181 L479.307374,297.54377 L477.190979,299.830983 L474.951579,301.647051 L472.256558,303.645639 L470.012658,304.641378 L466.52374,304.111818 L464.545083,302.757528 L465.650498,300.87588 L473.264571,296.042967 L479.803183,290.636078 L485.539666,287.527068 L483.200323,285.957749 L480.732043,283.835335 L478.349451,282.063233 L474.797134,279.83624 L471.736574,279.676971 L471.820162,280.94034 L471.990426,285.616862 L470.863396,288.033149 L469.502511,289.64666 L467.597273,291.835953 L465.093284,293.097177 L462.165887,293.87021 L453.939174,293.87021 L450.704228,293.638494 L448.100648,292.782026 L446.518705,291.698244 L444.371703,289.911524 L443.089713,288.34006 L442.182971,287.379088 L442.182971,282.707926 L441.122554,282.707926 L439.699429,283.835335 L437.899255,284.524107 L438.212518,286.146176 L440.074291,287.527068 L441.84881,290.486912 L442.000876,294.060181 L440.480659,296.869391 L441.692756,297.54377 L445.194599,298.254383 L449.781805,299.149662 L450.841257,300.87588 L448.804656,301.884486 L442.616602,301.647051 L440.59659,300.348126 L438.523789,300.259801 L438.031582,300.87588 L437.293495,303.032382 L436.295488,304.641378 L435.969004,306.767177 L436.610192,307.640784 L438.89106,309.109756 L442.428721,310.95726 L445.357982,312.05216 L448.992344,312.958726 L451.656052,313.863317 L451.540314,315.868396 L450.841257,315.868396 L446.204926,316.083651 L443.601017,315.378682 L440.357977,314.070107 L438.89106,312.878302 L437.557571,311.268573 L436.712298,310.479962 L435.771799,309.39618 L434.949482,309.109756 L434.949482,311.581071 L433.865082,312.623822 L433.865082,316.752895 L432.884011,317.811505 L432.884011,321.220991 L431.578552,322.121914 L430.163463,321.646535 L429.614351,320.441863 L429.274006,317.285107 L429.516553,312.217411 L430.163463,307.947356 L431.578552,303.645639 L433.72176,299.690847 L435.863297,295.760099 L436.953933,294.352418 L437.066906,290.931519 L436.712298,289.46143 L435.863297,288.148848 L434.808957,286.146176 L429.274006,286.146176 L425.879148,284.393694 L421.971327,282.467346 L419.777778,280.859807 L421.971327,278.716206 L423.733929,279.911416 L425.879148,280.859807 L427.578408,281.806721 L434.808957,281.806721 L436.295488,280.859807 L438.89106,279.232663 L441.354456,277.442901 L444.501802,276.044901 L447.156689,274.321343 L450.704228,274.321343 L451.540314,273.53541 L460.913504,273.53541 Z M276.675996,280.629992 L273.650549,282.527627 L271.267957,284.299729 L268.799677,286.422142 L266.460334,287.991462 L272.196817,291.100471 L277.037972,295.10286 C277.114201,298.584438 277.114201,298.584438 277.183404,302.211224 L277.048421,302.111444 L274.809021,300.295377 L272.692626,298.008164 L268.799677,294.524575 L263.952422,289.529797 L259.774028,292.075666 L258.174337,292.921279 L259.321557,294.334604 L261.257916,296.124653 L264.528644,297.333784 L266.583659,298.999613 L268.799677,300.531063 L268.799677,301.695154 L263.436135,301.695154 L259.626019,299.279345 L254.66298,294.102887 L248.444444,294.102887 L248.444444,291.395912 L254.66298,287.684112 L259.626019,285.412467 L264.528644,282.271114 L270.756795,277.0711 L275.443302,274.785737 L276.510436,274.784856 C276.594228,277.660881 276.594228,277.660881 276.675996,280.629992 Z M537.026359,227.38918 C536.819839,226.345067 537.826862,227.401855 540.047428,230.559546 C542.323509,233.796179 545.313872,239.485652 549.018518,247.627963 L549.018518,247.627963 L560.79043,264.368308 L573.111111,275.543018 L573.621523,275.789368 C578.173488,277.985546 581.59853,279.615581 583.896647,280.679475 C586.27988,281.782771 589.355336,283.158731 593.123014,284.807354 L593.123014,284.807354 L609.222222,290.911322 L609.222222,293.149835 L606.459152,293.788055 L594.902587,293.788055 L594.383765,293.663231 C591.825438,293.043991 589.803851,292.497966 588.319004,292.025159 C586.735168,291.52083 584.443496,290.679957 581.443987,289.50254 C578.376936,287.964611 576.080186,286.690279 574.553735,285.679543 C573.027284,284.668807 570.882394,283.002118 568.119064,280.679475 C564.845936,277.731169 562.403058,275.37266 560.79043,273.603948 C559.177803,271.835236 557.428373,269.59567 555.542142,266.885248 C552.807377,263.296644 550.632835,260.171188 549.018518,257.508877 C547.4042,254.846566 545.072064,250.539672 542.02211,244.588194 L542.02211,244.588194 L539.284684,236.178413 L537.044124,227.471428 Z M210.512055,283.849235 L221.722222,289.08779 L220.810731,291.161562 L217.807517,291.863802 L213.628559,291.863802 L212.03583,290.649176 L210.000956,289.81745 L208.350426,288.747316 L206.356081,287.856519 L205.111111,286.579469 L205.534896,284.830965 L206.356081,283.849235 L210.512055,283.849235 Z M545.643919,283.384842 L546.465104,284.366571 L546.888889,286.115076 L545.643919,287.392125 L543.649574,288.282923 L541.999044,289.353057 L539.96417,290.184782 L538.371441,291.399408 L534.192483,291.399408 L531.189269,290.697168 L530.277778,288.623396 L541.487945,283.384842 L545.643919,283.384842 Z M214.341461,227.967412 C216.617541,224.730779 217.618643,223.701406 217.344765,224.879294 L217.344765,224.879294 L215.104205,233.586279 L212.366779,241.99606 C209.316825,247.947538 206.984689,252.254432 205.370371,254.916743 C203.756054,257.579054 201.581512,260.70451 198.846747,264.293114 C196.960516,267.003535 195.211086,269.243102 193.598458,271.011814 C191.985831,272.780526 189.542953,275.139035 186.269825,278.087341 C183.506495,280.409984 181.361605,282.076673 179.835154,283.087409 C178.308703,284.098145 176.011952,285.372477 172.944902,286.910406 C169.945393,288.087823 167.653721,288.928696 166.069884,289.433025 C164.486048,289.937353 162.29152,290.524985 159.486302,291.195921 L159.486302,291.195921 L147.929737,291.195921 L145.166667,290.557701 L145.166667,288.319188 L161.265874,282.21522 C165.033553,280.566597 168.109009,279.190637 170.492242,278.087341 C172.875475,276.984044 176.470653,275.271892 181.277778,272.950884 L181.277778,272.950884 L193.598458,261.776174 L205.370371,245.035829 C209.075017,236.893518 212.06538,231.204045 214.341461,227.967412 Z M455.888889,280.71332 C453.495655,280.71332 451.555556,281.909401 451.555556,283.384842 C451.555556,284.860283 453.495655,286.056364 455.888889,286.056364 C458.282123,286.056364 460.222222,284.860283 460.222222,283.384842 C460.222222,281.909401 458.282123,280.71332 455.888889,280.71332 Z M205.160796,271.159505 L207.969782,272.524127 L213.422552,276.153113 L217.168604,278.103681 C217.876426,278.198858 218.364337,278.382368 218.632335,278.654208 C218.900333,278.926049 218.900333,279.237445 218.632335,279.588398 L217.168604,281.177713 L213.422552,281.177713 L213.422552,281.177713 L206.601203,278.103681 L202.987755,276.153113 L202.222222,273.462219 L202.987755,271.831808 L205.160796,271.159505 Z M546.839204,270.695111 L549.012245,271.367415 L549.777778,272.997825 L549.012245,275.688719 L545.398797,277.639287 L538.577448,280.71332 L534.831396,280.71332 L533.367665,279.124004 C533.099667,278.773052 533.099667,278.461655 533.367665,278.189815 C533.635663,277.917974 534.123574,277.734465 534.831396,277.639287 L534.831396,277.639287 L538.577448,275.688719 L544.030218,272.059734 L546.839204,270.695111 Z M193.555556,236.429716 L191.71163,243.723173 L187.636295,250.291954 L181.161119,257.949024 L174.520093,264.483249 L167.049818,269.815251 L163.479066,273.831027 L156,273.831027 L159.020332,269.815251 L167.049818,264.483249 L174.520093,257.949024 L181.161119,251.44392 L186.006335,245.670135 L190.746419,239.002046 L193.555556,236.429716 Z M393.864294,246.029399 L393.864294,249.283717 L392.723781,251.312269 L391.457204,254.466259 L391.280611,259.153709 L393.056773,261.614376 L396.957476,264.625271 L400.781247,267.183922 L404.448444,270.636552 L404.448444,272.665832 L401.439712,273.53541 L397.555533,271.729732 L391.77446,267.846767 L387.875156,262.945725 L386.472201,260.684663 L386.625977,257.162103 L387.875156,254.466259 L390.003806,250.591459 L392.723781,247.275214 L393.864294,246.029399 Z M558.444444,235.965322 L561.253581,238.537652 L565.993665,245.205741 L570.838881,250.979527 L577.479907,257.48463 L584.950182,264.018856 L592.979668,269.350857 L596,273.366633 L588.520934,273.366633 L584.950182,269.350857 L577.479907,264.018856 L570.838881,257.48463 L564.363705,249.827561 L560.28837,243.258779 L558.444444,235.965322 Z M269.333182,178.899101 L263.914771,187.295099 L255.644265,205.739881 L250.538759,223.821232 L248.247,230.246 L252.71375,227.846216 L257.694014,225.743627 L261.127662,225.743627 L262.166667,227.846216 L261.127662,230.054846 L256.422857,234.53341 L251.48874,237.693755 L243.12062,241.315046 L237.053075,242.743613 L231.862313,245.749205 L225.596694,248.551995 L221.898946,249.738657 L219.285639,253.247611 L216.938561,258.831649 L214.425029,266.322764 L212.9579,271.159505 L210.70631,271.159505 L210.70631,267.735757 L208,267.112768 L208,263.545823 L209.668319,257.864278 L211.852516,252.466554 L215.793775,246.333424 L222.43034,241.315046 L227.439357,238.529157 L230.366814,237.693755 L231.991,237.051 L234.719019,230.690113 L238.939637,222.494608 L242.722295,215.308255 L246.123595,205.739881 L249.210343,198.091083 L253.340338,191.461084 L259.304443,183.712987 L264.370352,178.270028 L268.333538,174.816484 C268.83336,176.7003 268.83336,176.7003 269.333182,178.899101 Z M483.091996,173.852431 L487.629648,177.805634 L492.695557,183.248594 L498.659662,190.99669 L502.789657,197.626689 L505.876405,205.275487 L509.277705,214.843862 L513.060363,222.030214 L517.280981,230.22572 L520.01,236.587 L521.633186,237.229361 L524.560643,238.064764 L529.56966,240.850652 L536.206225,245.86903 L540.147484,252.002161 L542.331681,257.399885 L544,263.081429 L544,266.648374 L541.29369,267.271364 L541.29369,270.695111 L539.0421,270.695111 L537.574971,265.858371 L535.061439,258.367256 L532.714361,252.783217 L530.101054,249.274263 L526.403306,248.087601 L520.137687,245.284812 L514.946925,242.27922 L508.87938,240.850652 L500.51126,237.229361 L495.577143,234.069016 L490.872338,229.590452 L489.833333,227.381823 L490.872338,225.279234 L494.305986,225.279234 L499.28625,227.381823 L503.753,229.781 L501.461241,223.356838 L496.355735,205.275487 L488.085229,186.830705 L480.444444,174.992942 L483.091996,173.852431 Z M124.668999,144.45032 L131.960925,147.19604 L137.626103,151.04524 L145.166667,158.160039 L150.66706,163.953729 L157.519669,168.978392 L164.916593,172.783425 L168.337,175.651 L181.277778,170.905305 L200.437678,164.962202 C201.356783,165.126375 201.356783,165.126375 202.369204,165.273799 L199.829866,167.817772 L189.311444,172.740158 L179.252173,177.80388 L169.12066,181.868992 L179.833333,181.868992 L206.916667,177.80388 L215.609317,174.316824 L227.5,174.316824 L213.416667,179.321567 L199.829866,181.868992 L187.237236,185.579079 L170.319699,189.029208 L168.79,189.029 L169.711888,190.850762 L174.054742,196.090353 L175.324,197.603 L178.95088,194.587356 L185.771547,189.029208 L187.112216,188.314588 L187.687557,189.029208 L179.833333,197.061842 L168.211386,210.475027 L155.061137,225.511618 L139.575966,237.907051 L145.166667,236.429716 L159.924092,231.462176 L169.931536,226.614245 L181.277778,220.489235 L195.790232,209.270077 L195.279592,210.70083 L192.522423,214.048272 L190.001973,216.82248 L182.770346,223.411335 L170.947888,231.72161 L157.4393,238.777979 L144.525294,243.871966 L131.07998,246.688074 L123.284932,246.688074 L118.71302,245.702914 L114.332041,243.245233 L119.226,240.64 L116.875414,237.48316 L113.643065,231.335633 L110.186136,216.772596 L108.559024,200.481556 L107.162326,176.491469 L106.515929,158.625639 L107.162326,152.991249 L111.431535,147.19604 L115.555556,144.45032 L124.668999,144.45032 Z M112.757913,110.459133 L124.492912,115.305237 L146.173229,127.433791 L149.653189,126.50287 L151.207525,129.86563 L158.760432,134.081808 L171.212667,142.666015 L186.778447,155.776857 L188.379586,156.524548 C188.726776,159.065245 188.726776,159.065245 191.504898,161.418948 L191.015598,162.679908 L186.778447,161.633186 L161.088039,151.75308 L143.722222,142.666015 L126.3893,132.041984 L113.679309,126.50287 L102.930023,127.433791 L93.7560257,132.041984 L82.3971866,143.331537 L73.2144188,158.955324 L72.4630749,179.739278 L68.0665921,195.229239 L66.1482775,206.709031 L70.8171346,219.566552 L78.3310613,229.459725 L88.4274282,237.816383 L96.4266587,244.890659 L95.1183847,246.688074 L88.4274282,244.097168 L76.3698684,239.101238 L66.1482775,226.637674 L64.0784273,223.765158 L62.2799769,226.637674 L60.1009821,225.743627 L56.2531461,214.629428 L55.2805893,195.229239 L59.2222222,174.316824 L68.0665921,147.835193 L77.1319319,134.081808 L91.9390597,117.744286 L102.930023,110.459133 L112.757913,110.459133 Z M649.069977,109.994739 L660.06094,117.279892 L674.868068,133.617415 L683.933408,147.370799 L692.777778,173.852431 L696.719411,194.764846 L695.746854,214.165035 L691.899018,225.279234 L689.720023,226.173281 L687.921573,223.300764 L685.851722,226.173281 L675.630132,238.636845 L663.572572,243.632775 L656.881615,246.223681 L655.573341,244.426265 L663.572572,237.351989 L673.668939,228.995331 L681.182865,219.102159 L685.851722,206.244638 L683.933408,194.764846 L679.536925,179.274884 L678.785581,158.490931 L669.602813,142.867144 L658.243974,131.57759 L649.069977,126.969398 L638.320691,126.038477 L625.6107,131.57759 L608.277778,142.201621 L590.911961,151.288687 L565.221553,161.168792 L560.984402,162.215515 L560.188718,160.168931 L554.179915,162.215515 L552.685023,161.168792 L565.221553,155.312463 L580.787333,142.201621 L593.239568,133.617415 L600.792475,129.401236 L602.346811,126.038477 L605.826771,126.969398 L627.507088,114.840844 L639.242087,109.994739 L649.069977,109.994739 Z M636.444444,143.985927 L640.568465,146.731646 L644.837674,152.526855 L645.484071,158.161245 L644.837674,176.027075 L643.440976,200.017163 L641.813864,216.308203 L638.356935,230.87124 L635.124586,237.018766 L632.774,240.176 L637.667959,242.78084 L633.28698,245.238521 L628.715068,246.223681 L620.92002,246.223681 L607.474706,243.407573 L594.5607,238.313585 L581.052112,231.257217 L569.229654,222.946942 L561.998027,216.358087 L559.477577,213.583879 L556.720408,210.236436 L556.209768,208.805684 L570.722222,220.024842 L582.068464,226.149851 L592.075908,230.997783 L606.833333,235.965322 L612.424034,237.442657 L596.938863,225.047225 L583.788614,210.010634 L572.166667,196.597449 L564.312443,188.564815 L564.887784,187.850194 L566.228453,188.564815 L573.04912,194.122963 L576.676,197.138 L577.945258,195.62596 L582.288112,190.386368 L583.21,188.564 L581.680301,188.564815 L564.762764,185.114686 L552.170134,181.404599 L538.583333,178.857174 L524.5,173.852431 L536.390683,173.852431 L545.083333,177.339487 L572.166667,181.404599 L582.87934,181.404599 L572.747827,177.339487 L562.688556,172.275765 L552.170134,167.353379 L548.311924,163.489335 L570.722222,170.440912 L583.664,175.187 L587.083407,172.319032 L594.480331,168.513998 L601.33294,163.489335 L606.833333,157.695646 L614.373897,150.580846 L620.039075,146.731646 L627.331001,143.985927 L636.444444,143.985927 Z M122.664549,152.991249 L119.494543,156.886975 L118.506172,164.687867 L118.506172,183.307786 L119.494543,198.291582 L120.125263,206.709031 L122.664549,219.629574 L126.659,235.913 L130.630229,233.359525 L132.275,232.349 L129.964131,229.335681 L126.786468,221.651104 L123.758283,210.699916 L122.664549,198.291582 L122.017058,179.663234 L122.664549,163.953729 L122.664549,152.991249 Z M629.335451,152.526855 L629.335451,163.489335 L629.982942,179.198841 L629.335451,197.827188 L628.241717,210.235523 L625.213532,221.186711 L622.035869,228.871287 L619.725,231.885 L621.369771,232.895132 L625.341,235.449 L629.335451,219.165181 L631.874737,206.244638 L632.505457,197.827188 L633.493828,182.843393 L633.493828,164.223474 L632.505457,156.422581 L629.335451,152.526855 Z M120.698015,147.19604 L115.555556,149.092151 L112.625528,154.674958 L111.974391,161.050395 L111.974391,172.783425 L112.625528,192.725632 L112.625528,208.008477 L114.332041,220.995017 L116.875414,227.925061 L120.125263,234.954225 L120.698015,231.335633 L118.506172,224.407866 L115.555556,207.405659 L114.332041,191.978179 L113.643065,172.314118 L113.643065,162.148818 L115.555556,154.674958 L119.494543,148.238159 L120.99,147.391 L120.698015,147.19604 Z M631.301985,146.731646 L631.01,146.927 L632.505457,147.773766 L636.444444,154.210564 L638.356935,161.684424 L638.356935,171.849724 L637.667959,191.513785 L636.444444,206.941266 L633.493828,223.943473 L631.301985,230.87124 L631.874737,234.489831 L635.124586,227.460667 L637.667959,220.530624 L639.374472,207.544083 L639.374472,192.261239 L640.025609,172.319032 L640.025609,160.586002 L639.374472,154.210564 L636.444444,148.627758 L631.301985,146.731646 Z M132.154,183.152 L132.451647,186.645198 L133.938396,192.993327 L135.133483,200.481556 L135.664309,210.699916 L137.082153,225.020882 L137.514,229.133 L144.525294,224.830195 L146.526,223.38 L143.258834,215.278364 L140.481843,200.481556 L139.388889,187.139672 L134.328539,185.579079 L132.154,183.152 Z M619.846,182.688 L617.671461,185.114686 L612.611111,186.675278 L611.518157,200.017163 L608.741166,214.81397 L605.475,222.915 L607.474706,224.365801 L614.486,228.669 L614.917847,224.556488 L616.335691,210.235523 L616.866517,200.017163 L618.061604,192.528933 L619.548353,186.180804 L619.846,182.688 Z M127.56229,151.78595 L127.56229,193.993303 L128.607536,206.230704 L131.004347,219.126215 L132.451647,223.04453 L132.451647,217.501331 L131.004347,208.008477 L129.964131,195.139263 L128.607536,177.590121 L128.607536,169.701908 L129.964131,162.148818 L132.451647,158.160039 L134.048,156.301 L132.958775,155.455788 L127.56229,151.78595 Z M624.43771,151.321557 L619.041225,154.991395 L617.952,155.837 L619.548353,157.695646 L622.035869,161.684424 L623.392464,169.237514 L623.392464,177.125728 L622.035869,194.67487 L620.995653,207.544083 L619.548353,217.036937 L619.548353,222.580136 L620.995653,218.661821 L623.392464,205.76631 L624.43771,193.528909 L624.43771,151.321557 Z M149.440619,187.834313 L150.026438,191.978179 C150.851206,198.733683 151.308407,202.957224 151.398039,204.648803 C151.487671,206.340381 151.487671,208.632867 151.398039,211.526262 L151.899,219.484 L152.760078,218.860722 L161.329,210.513 L157.519669,206.709031 L153.057963,197.730907 L151.398039,189.029208 L149.440619,187.834313 Z M602.559381,187.36992 L600.601961,188.564815 L598.942037,197.266514 L594.480331,206.244638 L590.672,210.048 L599.239922,218.396329 L600.101,219.02 L600.601961,211.061868 C600.512329,208.168474 600.512329,205.875988 600.601961,204.184409 C600.691593,202.492831 601.148794,198.269289 601.973562,191.513785 L601.973562,191.513785 L602.559381,187.36992 Z M145.556,187.139 L143.423,187.139 L144.502447,198.734255 L146.670555,209.849633 L146.670555,203.845056 L146.18262,196.698848 L145.65156,187.834313 L145.556,187.139 Z M608.577,186.675 L606.444,186.675 L606.34844,187.36992 L605.81738,196.234455 L605.329445,203.380663 L605.329445,209.385239 L607.497553,198.269861 L608.577,186.675 Z M164.157906,190.850762 L164.157906,207.405659 L162.848,209.037 L168.665111,203.390873 L171.863923,200.481556 L164.157906,190.850762 Z M587.842094,190.386368 L580.136077,200.017163 L583.334889,202.926479 L589.149,208.569 L587.842094,206.941266 L587.842094,190.386368 Z M155.475,188.322 L156,190.850762 L157.994714,196.609558 L159.13876,198.734255 L159.138,189.029 L158.999796,189.029208 L155.475,188.322 Z M596.525,187.857 L593.000204,188.564815 L592.862,188.564 L592.86124,198.269861 L594.005286,196.145165 L596,190.386368 L596.525,187.857 Z M136.538567,169.701908 L132.958775,172.783425 L132.451647,179.171675 L131.960925,180.866509 L132.038,181.781 L139.034,181.192 L138.572183,173.44929 L136.538567,169.701908 Z M615.461433,169.237514 L613.427817,172.984896 L612.966,180.728 L619.962,181.317 L620.039075,180.402116 L619.548353,178.707281 L619.041225,172.319032 L615.461433,169.237514 Z M141.584691,162.148818 L142.218328,168.978392 L142.727279,179.663234 L142.84,180.872 L144.68,180.717 L144.254861,177.590121 L144.254861,168.978392 L144.436393,164.963527 L151.908448,172.314118 L144.502447,165.021789 L141.584691,162.148818 Z M610.415309,161.684424 L607.497553,164.557396 L600.091552,171.849724 L607.563607,164.499133 L607.745139,168.513998 L607.745139,177.125728 L607.32,180.252 L609.16,180.407 L609.272721,179.198841 L609.781672,168.513998 L610.415309,161.684424 Z M151.908448,172.314118 L153.574205,179.171675 L153.596,179.276 L159.138,178.356 L159.13876,177.590121 L163.006204,177.590121 L163.013,177.603 L163.923,177.269 L161.51508,176.491469 L156,175.080404 L151.908448,172.314118 Z M600.091552,171.849724 L596,174.61601 L590.48492,176.027075 L588.076,176.805 L588.987,177.139 L588.993796,177.125728 L592.86124,177.125728 L592.862,177.892 L598.404,178.812 L598.425795,178.707281 L600.091552,171.849724 Z M239.695,167.696 L263.086,168.996 L266.761519,169.670538 C267.303414,171.175894 267.303414,171.175894 267.845309,173.051496 L263.788122,174.316824 L251.333333,172.655738 L239.695,167.696 Z M564.246519,119.507501 L568.948027,122.646496 L560.95511,124.214689 L553.732493,128.659641 L542.731739,139.527401 L529.772083,154.561569 L513.9104,166.547416 L500.666667,172.191344 L488.211878,173.852431 L482.87974,172.191344 L484.169921,169.403301 L491.181623,168.114956 L503.555556,163.489335 L513.9104,157.8369 L527.869612,146.590139 L538.524013,135.495371 L547.408559,125.668072 L557.392122,119.507501 L564.246519,119.507501 Z M390.806458,164.825897 L387.983278,167.678678 L385.976235,166.136012 C388.159954,165.465529 388.159954,165.465529 390.806458,164.825897 Z M454.228649,152.227504 L450.483251,155.143028 L438.672379,162.12138 L428.667762,162.12138 L420.94356,159.20705 C427.256128,158.055101 427.256128,158.055101 433.67,156.8525 C444.786139,154.768224 444.786139,154.768224 454.228649,152.227504 Z M516.916667,93.0478345 L518.724773,101.748594 L515.096182,116.450699 L512.520757,125.820064 L505.774992,137.737417 L496.805798,148.92612 L490.166196,154.724651 L499.384044,151.761784 L505.774992,148.92612 L512.520757,143.985927 L520.888889,137.737417 L521.929417,137.737417 L514.124842,145.584904 L505.774992,151.761784 L496.805798,156.699243 L484.461958,161.215951 L471.744254,162.12138 L458.402975,162.12138 L458.402975,159.694726 L464.401013,157.602715 L475.37214,153.140802 L484.461958,148.92612 L492.638985,142.934502 L500.666667,130.908863 L508.349006,116.450699 L512.520757,104.026489 L515.096182,93.0478345 L516.916667,93.0478345 Z M236.903818,93.5122279 L239.479243,104.490883 L243.650994,116.915093 L251.333333,131.373257 L259.361015,143.398895 L265.694,148.039 L263.765,148.04 C258.499255,147.762856 258.499255,147.762856 253.655688,147.472092 L246.225008,138.20181 L239.479243,126.284458 L236.903818,116.915093 L233.275227,102.212987 L235.083333,93.5122279 L236.903818,93.5122279 Z M295.08136,47.9275859 L290.333333,57.2586622 L285.620827,70.5038243 L281.448335,91.7609374 L285.620827,113.043371 L295.08136,128.049001 L307.305556,141.278834 L317.036708,147.719769 C312.627403,147.877659 312.627403,147.877659 308.1283,147.99065 L306.065,148.04 L286.941,148.039 L281.448335,144.45032 L272.992062,137.820058 L267.52207,130.543223 L261.833804,119.971894 L277.085944,137.820058 L290.333333,144.45032 L278.859518,128.049001 L272.992062,113.043371 L272.992062,96.3660326 L275.611793,76.8168398 L281.448335,61.9291011 L290.333333,51.0599981 L295.08136,47.9275859 Z M367.555881,0.464393476 L368.933757,2.27849715 L368.933757,4.9314502 L366.166667,8.7687573 L359.142887,11.6422452 L345.213089,18.802278 L332.222222,27.2120085 L319.04139,42.9042912 L315.623198,58.9445289 L317.092932,82.4510978 L323.649326,97.4045886 L327.811,105.066 L327.811219,82.9754808 L333.641578,65.2534603 L340.644899,52.8144757 L352.280003,39.7931156 L359.450259,33.2742676 C361.185929,32.0778015 362.629946,31.1281637 363.782311,30.4253543 C364.934676,29.722545 366.04179,30.0026765 367.103654,31.2657489 C367.755292,32.343879 368.044918,33.2627551 367.972531,34.0223775 C367.900145,34.7819998 367.729946,35.5997294 367.461936,36.475566 L367.461936,36.475566 L362.243991,40.9366299 L348.845912,54.7662054 L340.644899,67.712016 L335.48228,84.2398808 L335.48228,105.25668 L337.836151,122.355495 L345.396805,141.116646 L348.921959,145.897929 C341.218649,146.516003 341.218649,146.516003 333.193923,146.973369 L330.571388,144.45032 L315.695624,124.705583 L303.045661,99.4159485 L309.970372,107.959634 L319.975873,122.355495 L330.571388,135.649014 L335.48228,141.116646 L340.644899,144.45032 L336.784196,139.081191 L332.222222,128.049001 L331.305,124.897 L325.783268,119.971894 L315.623198,105.25668 C313.070401,100.16439 311.267974,96.2495724 310.215917,93.5122279 C309.16386,90.7748835 308.193739,87.4758182 307.305556,83.615032 C305.838891,79.4827507 304.948585,76.1717325 304.634635,73.6819771 C304.320686,71.1922218 304.320686,67.4427203 304.634635,62.4334725 L308.496221,42.9042912 L317.092932,30.6294825 L325.783268,20.9480008 L333.641578,14.9069784 L345.213089,7.43084563 L356.539678,2.27849715 L362.827822,0.464393476 L367.555881,0.464393476 Z M231.111111,138.20181 L239.479243,144.45032 L242.623723,146.753564 C240.463279,146.600542 240.463279,146.600542 238.407634,146.444139 L237.875158,146.049298 L230.070583,138.20181 L231.111111,138.20181 Z M194.607878,119.971894 L204.591441,126.132466 L213.475987,135.959764 L222.137879,144.97983 C221.619606,144.923845 221.619606,144.923845 221.1125,144.8675 C216.558875,144.361542 216.558875,144.361542 212.673375,143.94273 L209.268261,139.991794 L198.267507,129.124035 L191.04489,124.679082 L183.051973,123.11089 L187.753481,119.971894 L194.607878,119.971894 Z M355.979386,65.6557813 L355.979386,82.6879896 L359.258999,95.0522441 L365.150746,108.284963 L371.971271,122.29284 L376.091,132.781 L380.028729,122.757234 L386.849254,108.749357 L392.741001,95.5166376 L396.020614,83.152383 L396.020614,66.1201748 L399.514095,73.2404042 L401.724363,83.152383 L401.724363,95.5166376 L397.744502,107.305892 L391.290486,119.984368 L386.849254,133.141905 L383.716245,140.761324 L383.938625,142.204989 C376.105372,143.191114 376.105372,143.191114 367.699672,144.105684 L368.283755,140.29693 L365.150746,132.677512 L360.709514,119.519975 L354.255498,106.841498 L350.275637,95.0522441 L350.275637,82.6879896 L352.485905,72.7760108 L355.979386,65.6557813 Z M490.166196,119.507501 L484.47793,130.07883 L479.007938,137.355664 L476.666793,139.192002 C476.675,139.034166 476.675,139.034166 476.675,138.875 C476.675,137.034441 476.675,137.034441 476.566039,135.4227 L490.166196,119.507501 Z M389.172178,5.68434189e-14 L395.460322,1.81410367 L406.786911,6.96645215 L418.358422,14.4425849 L426.216732,20.4836074 L434.907068,30.1650891 L443.503779,42.4398977 L447.365365,61.9690791 C447.679314,66.9783268 447.679314,70.7278283 447.365365,73.2175837 C447.051415,75.707339 446.161109,79.0183573 444.694444,83.1506385 C443.806261,87.0114247 442.83614,90.31049 441.784083,93.0478345 C440.732026,95.7851789 438.929599,99.6999962 436.376802,104.792286 L436.376802,104.792286 L426.216732,119.507501 L420.695,124.432 L419.777778,127.584607 L415.671743,137.517133 C413.773601,137.843567 413.773601,137.843567 411.815,138.17 C409.593701,138.540217 409.593701,138.540217 407.310189,138.902657 L414.163849,121.891102 L416.51772,104.792286 L416.51772,83.7754874 L411.355101,67.2476225 L403.154088,54.3018119 L389.756009,40.4722364 L384.538064,36.0111725 L384.41221,35.5780965 C384.216038,34.8643735 384.087791,34.1910026 384.027469,33.557984 C383.955082,32.7983617 384.244708,31.8794855 384.896346,30.8013554 C385.95821,29.538283 387.065324,29.2581515 388.217689,29.9609609 C389.370054,30.6637703 390.814071,31.613408 392.549741,32.8098741 L392.549741,32.8098741 L399.719997,39.3287222 L411.355101,52.3500822 L418.358422,64.7890669 L424.188781,82.5110873 L424.189,104.602 L428.350674,96.9401951 L434.907068,81.9867044 L436.376802,58.4801354 L432.95861,42.4398977 L419.777778,26.747615 L406.786911,18.3378845 L392.857113,11.1778518 L385.833333,8.30436382 L383.066243,4.46705673 L383.066243,1.81410367 L384.444119,5.68434189e-14 L389.172178,5.68434189e-14 Z M448.954339,98.951555 L436.304376,124.241189 L427.991914,135.275828 C424.160692,136.015595 424.160692,136.015595 420.018971,136.755362 L421.428612,135.184621 L432.024127,121.891102 L442.029628,107.49524 L448.954339,98.951555 Z M456.91864,47.4631924 L461.666667,50.5956047 L470.551665,61.4647076 L476.388207,76.3524463 L479.007938,95.9016392 L479.007938,112.578978 L473.771311,125.96989 C472.15051,124.07 472.15051,124.07 469.625,124.07 C469.008125,124.07 469.008125,124.07 468.661133,124.339883 L468.473867,124.505117 C468.176445,124.736445 468.176445,124.736445 467.680742,124.769492 L467.51,124.775 L466.805,124.775 C463.123009,126.615995 463.123009,126.615995 455.835418,128.757458 L456.91864,127.584607 L466.379173,112.578978 L470.551665,91.2965439 L466.379173,70.0394309 L461.666667,56.7942687 L456.91864,47.4631924 Z M208,55.1469508 L206.535531,59.860662 L204.108241,73.7767427 L204.108241,86.0567886 L206.535531,94.647276 L211.357663,106.506571 L217.388889,116.94249 L218.656464,121.151953 L217.388889,122.355495 L212.55191,118.353473 L206.535531,110.913747 L200.931107,98.3309636 L199.314977,90.4358563 L199.314977,76.2516694 L200.931107,69.5137892 L204.108241,59.860662 L208,55.1469508 Z M544,54.6825574 L547.891759,59.3962685 L551.068893,69.0493957 L552.685023,75.7872759 L552.685023,89.9714628 L551.068893,97.8665701 L545.464469,110.449353 L539.44809,117.889079 L534.611111,121.891102 L533.343536,120.68756 L534.611111,116.478097 L540.642337,106.042178 L545.464469,94.1828825 L547.891759,85.5923952 L547.891759,73.3123492 L545.464469,59.3962685 L544,54.6825574 Z M174.777778,93.5122279 L184.556597,96.7503766 L191.04489,101.121616 L187.813441,105.296861 L178.095109,102.948783 L167.909095,99.6799748 L158.5089,99.6799748 L152.697088,101.121616 L139.355104,106.58746 L129.375773,110.459133 C126.638341,111.065285 125.269625,111.065285 125.269625,110.459133 C125.269625,109.852981 127.87303,107.682217 133.079842,103.946842 L133.079842,103.946842 L141.586145,98.6401664 L153.861708,94.6818493 L162.943061,93.5122279 L174.777778,93.5122279 Z M589.056939,93.0478345 L598.138292,94.2174558 L610.413855,98.1757729 L618.920158,103.482449 L619.256042,103.723842 C624.238931,107.311465 626.730375,109.401765 626.730375,109.994739 C626.730375,110.600891 625.361659,110.600891 622.624227,109.994739 L622.624227,109.994739 L612.644896,106.123066 L599.302912,100.657223 L593.4911,99.2155813 L584.090905,99.2155813 L573.904891,102.484389 L564.186559,104.832467 L560.95511,100.657223 L567.443403,96.2859831 L577.222222,93.0478345 L589.056939,93.0478345 Z M303.045661,16.7978609 L290.333333,22.8519521 L274.029885,34.4610721 L261.833804,50.4416837 L254.900813,67.8255506 L253.465083,85.5500214 L254.900813,94.8712962 L256.336542,104.10599 L253.465083,105.25668 L251.333333,101.116518 L248.444444,87.6067135 L248.444444,67.8255506 L256.336542,47.9275859 L269.12026,32.5808079 L292.280562,18.178246 L303.045661,16.7978609 Z M448.954339,16.3334674 L459.719438,17.7138525 L482.87974,32.1164144 L495.663458,47.4631924 L503.555556,67.3611571 L503.555556,87.14232 L500.666667,100.652124 L498.534917,104.792286 L495.663458,103.641597 L497.099187,94.4069027 L498.534917,85.085628 L497.099187,67.3611571 L490.166196,49.9772902 L477.970115,33.9966786 L461.666667,22.3875586 L448.954339,16.3334674 Z" id="eye"></path>
            </g>
        </g>
    </g>
</svg>